<svg xmlns="http://www.w3.org/2000/svg" viewBox="0 0 64 64">
  <rect x="2" y="14" width="60" height="36" rx="12" fill="#ffffff" />
  <path
    fill="#0D2F36"
    transform="translate(4 24.56) scale(0.1734)"
    d="M41.8086 0C65.2284 9.07432e-05 84.2284 18.9901 84.2285 42.4199C84.2285 65.8499 65.2385 84.8398 41.8086 84.8398C32.7811 84.8398 24.4141 82.0189 17.5371 77.2129L28.3438 61.417C32.1458 64.1143 36.7923 65.7002 41.8086 65.7002C54.6685 65.7001 65.0889 55.2799 65.0889 42.4199C65.0887 29.5601 54.6684 19.1407 41.8086 19.1406C37.022 19.1406 32.5719 20.5839 28.8711 23.0596L18.0654 7.26074C24.8405 2.67696 33.0117 0 41.8086 0ZM222.944 26.6328C226.787 26.6328 230.135 27.3902 232.987 28.9062C235.84 30.364 238.169 32.3472 239.974 34.8545C241.837 37.3617 243.175 40.2189 243.99 43.4258C244.805 46.6329 245.097 49.9857 244.864 53.4844H212.29C212.465 57.5077 213.484 60.4228 215.347 62.2305C217.21 64.0381 219.888 64.9424 223.381 64.9424C225.884 64.9424 228.038 64.3299 229.843 63.1055C231.648 61.8226 232.755 60.4815 233.162 59.082H244.078C242.332 64.5047 239.653 68.3824 236.044 70.7148C232.434 73.0472 228.068 74.2138 222.944 74.2139C219.393 74.2139 216.191 73.6597 213.338 72.5518C210.485 71.3856 208.069 69.7525 206.09 67.6533C204.11 65.5542 202.567 63.0473 201.461 60.1318C200.413 57.2164 199.89 54.0093 199.89 50.5107C199.89 47.1288 200.443 43.9799 201.549 41.0645C202.655 38.1489 204.227 35.6412 206.265 33.542C208.302 31.3846 210.718 29.6932 213.513 28.4688C216.365 27.2443 219.509 26.6328 222.944 26.6328ZM299.6 26.6328C303.151 26.6328 306.353 27.2156 309.206 28.3818C312.117 29.4897 314.591 31.0932 316.629 33.1924C318.666 35.2331 320.239 37.7402 321.345 40.7139C322.451 43.6294 323.004 46.8955 323.004 50.5107C323.004 54.1259 322.451 57.3912 321.345 60.3066C320.239 63.2221 318.667 65.7299 316.629 67.8291C314.591 69.8698 312.117 71.4439 309.206 72.5518C306.353 73.6596 303.151 74.2139 299.6 74.2139C296.048 74.2138 292.847 73.6595 289.994 72.5518C287.142 71.4439 284.696 69.8699 282.658 67.8291C280.621 65.7299 279.049 63.2222 277.942 60.3066C276.836 57.3912 276.283 54.1259 276.283 50.5107C276.283 46.8955 276.836 43.6294 277.942 40.7139C279.049 37.7402 280.621 35.2331 282.658 33.1924C284.696 31.0932 287.141 29.4897 289.994 28.3818C292.847 27.2157 296.048 26.6329 299.6 26.6328ZM265.318 27.8564H274.4V36.166H265.318V58.5576C265.318 60.6566 265.668 62.0562 266.366 62.7559C267.065 63.4554 268.462 63.8057 270.558 63.8057C271.256 63.8057 271.926 63.7761 272.566 63.7178C273.207 63.6595 273.818 63.5717 274.4 63.4551V73.0762C273.353 73.2511 272.188 73.3684 270.907 73.4268C269.626 73.4851 268.374 73.5137 267.151 73.5137C265.23 73.5137 263.397 73.3677 261.65 73.0762C259.962 72.843 258.448 72.3478 257.109 71.5898C255.829 70.8318 254.81 69.7529 254.053 68.3535C253.296 66.9541 252.917 65.1169 252.917 62.8428V36.166H245.407V27.8564H252.917V14.2998H265.318V27.8564ZM146.862 22.1719H113.939V35.5537H144.155V46.2246H113.939V61.5312H147.561V73.0762H100.229V10.626H146.862V22.1719ZM178.775 26.6328C182.094 26.6328 184.802 27.0993 186.897 28.0322C189.051 28.9069 190.739 30.1604 191.962 31.793C193.185 33.3674 194.029 35.3209 194.495 37.6533C195.019 39.9273 195.28 42.4639 195.28 45.2627V73.0762H182.88V47.5371C182.88 43.8054 182.298 41.0352 181.134 39.2275C179.969 37.3616 177.902 36.4287 174.933 36.4287C171.556 36.4288 169.111 37.4495 167.598 39.4902C166.084 41.4727 165.327 44.7668 165.327 49.373V73.0762H152.926V27.8564H164.716V34.1543H164.978C166.549 31.5304 168.587 29.6349 171.091 28.4688C173.594 27.2444 176.156 26.6328 178.775 26.6328ZM18.8086 46.0986C19.3378 49.4312 20.5751 52.5269 22.3604 55.2295L6.56348 66.0332C3.30619 61.1806 1.02525 55.6186 0 49.627L18.8086 46.0986ZM299.6 35.9912C297.504 35.9913 295.757 36.4282 294.36 37.3027C292.963 38.1191 291.827 39.198 290.954 40.5391C290.139 41.8801 289.557 43.4256 289.208 45.1748C288.859 46.9241 288.684 48.7031 288.684 50.5107C288.684 52.3182 288.859 54.0965 289.208 55.8457C289.557 57.5366 290.139 59.0821 290.954 60.4814C291.827 61.8226 292.963 62.9014 294.36 63.7178C295.758 64.534 297.504 64.9423 299.6 64.9424C301.696 64.9424 303.443 64.5341 304.84 63.7178C306.295 62.9015 307.43 61.8225 308.245 60.4814C309.118 59.082 309.73 57.5367 310.079 55.8457C310.428 54.0965 310.603 52.3182 310.604 50.5107C310.604 48.7031 310.428 46.9241 310.079 45.1748C309.73 43.4256 309.118 41.8801 308.245 40.5391C307.43 39.1981 306.295 38.119 304.84 37.3027C303.443 36.4281 301.695 35.9912 299.6 35.9912ZM222.595 35.9912C220.615 35.9912 218.956 36.3413 217.617 37.041C216.336 37.6824 215.289 38.499 214.474 39.4902C213.717 40.4815 213.164 41.5308 212.814 42.6387C212.523 43.7465 212.348 44.7377 212.29 45.6123H232.463C231.881 42.4637 230.833 40.0731 229.319 38.4404C227.864 36.8077 225.622 35.9912 222.595 35.9912ZM22.8896 28.8418C21.0286 31.4279 19.685 34.4106 19.0107 37.6396L0.203125 34.1113C1.37231 28.2227 3.76003 22.7737 7.09277 18.0371L22.8896 28.8418Z"
  />
</svg>
